<?xml version="1.0" encoding="utf-8"?>
<!-- Generator: Adobe Illustrator 24.1.2, SVG Export Plug-In . SVG Version: 6.00 Build 0)  -->
<svg version="1.1" id="Layer_1" xmlns="http://www.w3.org/2000/svg" xmlns:xlink="http://www.w3.org/1999/xlink" x="0px" y="0px"
	 viewBox="0 0 145.3 64.6" style="enable-background:new 0 0 145.3 64.6;" xml:space="preserve">
<style type="text/css">
	.st0{fill:#FFFFFF;}
	.st1{fill-rule:evenodd;clip-rule:evenodd;fill:#FFFFFF;}
	.st2{fill-rule:evenodd;clip-rule:evenodd;fill:#B65927;}
</style>
<g>
	<ellipse class="st0" cx="54.6" cy="36" rx="15.1" ry="15"/>
	<path class="st1" d="M33.9,40.8c3.4,5.4,6,8.4,7.7,9.4v0.1h-13L20,36c-1.4-2.5-2.6-4.1-3.3-4.9c-0.7-0.8-1.5-1.3-2.3-1.4v13.2
		c0,3.3,1.8,6.1,4.6,7.4v0.1H0v-0.1c2.9-1.3,4.7-4.1,4.7-7.4V14.7c0-3.3-1.8-6.1-4.7-7.4V7.1h22.2c3.5,0,6.7,1,9.3,3.1
		c2.7,2,4.1,4.9,4.1,8.5c0,5.1-3.2,8.8-9.2,10.2L33.9,40.8z M14.4,10.3v16c1.2,0.2,2.3,0.3,3.4,0.3c4.5,0,7.7-2.2,7.7-7.2
		c0-2.7-1-4.8-2.9-6.5c-1.9-1.7-4.3-2.6-7.1-2.6L14.4,10.3L14.4,10.3z"/>
	<path class="st1" d="M47.4,21.3c-0.9-5.1,0-8.2,2.9-9.1c1.2-0.4,2.8-0.6,4.7-0.6c1.9,0,3.3-0.2,4.2-0.5c1.7-0.5,2.8-1.8,3.2-3.9
		l0.2-0.1c0.9,5.1,0,8.2-2.9,9.1c-1.2,0.4-2.7,0.6-4.6,0.6c-1.8,0-3.2,0.2-4.2,0.5c-1.7,0.5-2.8,1.8-3.3,3.9L47.4,21.3z"/>
	<path class="st1" d="M71.2,50.3v-0.1c2.9-1.5,3.3-3.5,3.3-7.4V14.6c0-3.9-0.4-5.9-3.3-7.4V7.1h12.1v35.7c0,3.9,0.4,5.9,3.3,7.4v0.1
		H71.2z"/>
	<path class="st1" d="M114.8,34.2h0.1c0.4,3,0.1,5.9-0.9,8.8c-1.1,2.9-2.9,4.9-5.7,6.2c-3.2,1.5-6.7,1.6-10.3,0.2
		c-3.7-1.4-6.6-4.3-8.7-9c-2.1-4.5-2.5-8.7-1-12.5c1.5-3.9,3.8-6.6,7.2-8.1c3-1.4,6.2-1.4,9.4,0.1c3.2,1.4,6,4.3,8.1,8.7l-16.1,7.5
		c3.6,5.7,8.2,7,12.2,5.1C111.6,40.1,113.5,37.8,114.8,34.2z M95.3,33.2l8.7-4c-2.9-4.7-6.2-7.3-8.4-6.3C93.5,23.9,93,28,95.3,33.2z
		"/>
	<path class="st1" d="M135.3,50.3c-7.8,0.4-12.2-0.2-14.1-2.7c-0.9-1.2-1.5-2.4-1.8-3.4c-0.2-1-0.3-2.8-0.3-5.1v-0.2V22.8h-3.5v-3.1
		c4.7-0.8,9.1-4.8,12.3-10.6h0.1v10.4h5.5v3.3H128V40c0,2.5,0.4,4.4,1.4,5.7c0.9,1.3,2.9,2.8,5.9,4.5V50.3z"/>
	<ellipse class="st2" cx="54.6" cy="36" rx="7.7" ry="7.7"/>
	<rect x="26.7" y="59.1" class="st0" width="1" height="5.5"/>
	<polygon class="st1" points="41.5,59.1 41.5,64.5 40.7,64.5 37.7,60.8 37.7,64.5 36.7,64.5 36.7,59.1 37.5,59.1 40.5,62.8 
		40.5,59.1 	"/>
	<path class="st1" d="M50.4,61.8c0-1.6,1.3-2.8,2.9-2.8c0.9,0,1.7,0.3,2.2,0.9l-0.6,0.6c-0.4-0.4-0.9-0.6-1.5-0.6
		c-1.1,0-2,0.8-2,1.9c0,1.1,0.8,1.9,2,1.9c0.6,0,1.1-0.2,1.5-0.6l0.6,0.6c-0.5,0.6-1.3,0.9-2.2,0.9C51.7,64.6,50.4,63.4,50.4,61.8z"
		/>
	<polygon class="st1" points="68.5,63.7 68.5,64.5 64.4,64.5 64.4,59.1 68.4,59.1 68.4,59.9 65.4,59.9 65.4,61.3 68.1,61.3 
		68.1,62.2 65.4,62.2 65.4,63.7 	"/>
	<polygon class="st1" points="82.3,59.1 82.3,64.5 81.5,64.5 78.4,60.8 78.4,64.5 77.4,64.5 77.4,59.1 78.3,59.1 81.3,62.8 
		81.3,59.1 	"/>
	<path class="st1" d="M91.2,63.9l0.4-0.8c0.4,0.4,1.1,0.6,1.8,0.6c0.9,0,1.2-0.3,1.2-0.7c0-1.2-3.2-0.4-3.2-2.4
		c0-0.9,0.7-1.6,2.2-1.6c0.6,0,1.3,0.2,1.8,0.5L95,60.2c-0.5-0.3-1-0.4-1.5-0.4c-0.9,0-1.2,0.3-1.2,0.7c0,1.2,3.2,0.4,3.2,2.4
		c0,0.9-0.7,1.6-2.2,1.6C92.5,64.6,91.6,64.3,91.2,63.9z"/>
	<polygon class="st1" points="108.6,63.7 108.6,64.5 104.5,64.5 104.5,59.1 108.5,59.1 108.5,59.9 105.5,59.9 105.5,61.3 
		108.1,61.3 108.1,62.2 105.5,62.2 105.5,63.7 	"/>
	<path class="st1" d="M139.4,3.3v1.3h1c0.4,0,0.6-0.1,0.8-0.2c0.1-0.1,0.2-0.3,0.2-0.5c0-0.2-0.1-0.4-0.2-0.5
		c-0.1-0.1-0.4-0.2-0.8-0.2L139.4,3.3L139.4,3.3z M138.2,2.3v5.5h1.2V5.6h1c0.3,0,0.5,0,0.6,0.1c0.1,0.1,0.2,0.2,0.2,0.3
		c0,0.1,0.1,0.4,0.1,0.9c0,0.2,0,0.4,0,0.5c0,0.1,0.1,0.2,0.1,0.4h1.4c-0.1-0.1-0.2-0.2-0.2-0.3c0-0.1-0.1-0.5-0.1-1.2
		c0-0.4-0.1-0.6-0.1-0.7c-0.1-0.2-0.2-0.3-0.4-0.4c0.3-0.2,0.4-0.4,0.5-0.5c0.1-0.2,0.1-0.4,0.1-0.7c0-0.3-0.1-0.6-0.2-0.9
		c-0.2-0.3-0.3-0.4-0.6-0.5c-0.2-0.1-0.6-0.2-1.1-0.2L138.2,2.3L138.2,2.3z M144.3,5c0-1.1-0.4-2-1.2-2.8c-0.8-0.8-1.7-1.2-2.8-1.2
		s-2,0.4-2.8,1.2c-0.8,0.8-1.2,1.7-1.2,2.8c0,0.7,0.2,1.4,0.5,1.9c0.4,0.6,0.9,1.1,1.5,1.4c0.6,0.4,1.3,0.5,2,0.5
		c0.7,0,1.4-0.2,2-0.5c0.6-0.4,1.1-0.8,1.5-1.4C144.1,6.3,144.3,5.7,144.3,5z M145.3,5c0,0.9-0.2,1.7-0.7,2.5
		c-0.4,0.8-1.1,1.4-1.8,1.8c-0.8,0.4-1.6,0.7-2.5,0.7c-0.9,0-1.7-0.2-2.5-0.7c-0.8-0.4-1.4-1-1.8-1.8c-0.4-0.8-0.7-1.6-0.7-2.5
		c0-0.9,0.2-1.7,0.7-2.5c0.4-0.8,1.1-1.4,1.8-1.8c0.8-0.4,1.6-0.7,2.5-0.7c0.9,0,1.7,0.2,2.5,0.7c0.8,0.4,1.4,1,1.8,1.8
		C145.1,3.2,145.3,4.1,145.3,5z"/>
</g>
</svg>
