<?xml version="1.0" encoding="utf-8"?>
<!-- Generator: Adobe Illustrator 24.1.2, SVG Export Plug-In . SVG Version: 6.00 Build 0)  -->
<svg version="1.1" id="Layer_1" xmlns="http://www.w3.org/2000/svg" xmlns:xlink="http://www.w3.org/1999/xlink" x="0px" y="0px"
	 viewBox="0 0 95.1 95" style="enable-background:new 0 0 95.1 95;" xml:space="preserve">
<style type="text/css">
	.st0{fill:#FFFFFF;}
	.st1{fill-rule:evenodd;clip-rule:evenodd;fill:#FFFFFF;}
	.st2{fill-rule:evenodd;clip-rule:evenodd;fill:#B65927;}
</style>
<g>
	<path class="st0" d="M59.9,9.1c-13,0-25.1,4.9-34.3,13.9C16.5,32,11.4,43.9,11.4,56.5c0,7.6,1.9,15.1,5.4,21.7
		c1.6,3,3.5,5.9,5.8,8.5c-11.8-8.7-19-22.4-19-37.3C3.5,23.6,25,2.7,51.4,2.7c12.5,0,24.2,4.7,33,12.9C77,11.4,68.7,9.1,59.9,9.1z
		 M94.1,22.9c-4.5-6.9-10.7-12.6-18-16.6C68.6,2.2,60,0,51.4,0C37.9,0,25.2,5.1,15.6,14.5C6,23.8,0.8,36.2,0.8,49.4
		c0,19.8,12.1,37.6,30.7,45.4c0.2,0.1,0.4,0.1,0.5,0.1c0.5,0,0.9-0.2,1.2-0.7c0.3-0.6,0.2-1.3-0.4-1.8c-11.7-8.4-18.7-21.9-18.7-36
		c0-24.6,20.5-44.7,45.8-44.7c12,0,23.4,4.5,32,12.8c0.5,0.5,1.3,0.5,1.8,0.1C94.3,24.2,94.5,23.5,94.1,22.9z M81.3,62.2
		c-5.9,6.7-13.8,9.6-23.5,8.7l14.9-8.4c0.7-0.4,0.9-1.2,0.5-1.8c-0.4-0.6-1.2-0.9-1.9-0.5l-14.6,8.2c1.5-5.7,4.4-10,8.7-12.9
		c7.8-5.2,18.2-4.3,22-3.7C86.7,53.9,84.8,58.2,81.3,62.2z M28,62.2c-3.5-4-5.4-8.3-6.2-10.4c3.8-0.6,14.2-1.5,22,3.7
		c4.3,2.9,7.3,7.3,8.8,13l-14.9-8.4c-0.7-0.4-1.5-0.2-1.9,0.5c-0.4,0.6-0.2,1.5,0.5,1.8l15,8.4C41.7,71.7,33.9,68.8,28,62.2z M48,35
		c-0.4-5.2,2.2-11.6,6.5-16.2c4.2,4.5,6.8,11,6.5,16.2c-0.3,4.3-2.7,8.4-5.2,12.2l0-12.9c0-0.7-0.6-1.3-1.4-1.3s-1.4,0.6-1.4,1.3
		l0,13C50.8,43.8,48.3,39.2,48,35z M89.6,49.4c-0.6-0.1-15-3.3-25.7,3.8c-3.5,2.3-6.2,5.5-8,9.4l0-10.5c0.3-0.5,0.7-1.1,1.1-1.6
		c3-4.5,6.5-9.7,6.8-15.4c0.4-6.3-3-14.3-8.3-19.3c-0.5-0.5-1.4-0.5-1.9,0c-5.5,5.2-8.8,12.9-8.3,19.3c0.5,6.3,4.9,12.7,7.6,16.6
		c0.1,0.1,0.2,0.3,0.3,0.4l0,10c-1.8-3.7-4.4-6.7-7.8-8.9c-10.7-7.1-25.1-4-25.7-3.8c-0.4,0.1-0.7,0.3-0.9,0.6
		c-0.2,0.3-0.2,0.7-0.2,1c0.1,0.3,1.8,6.8,7.2,12.8c4.2,4.7,11.3,9.9,22.5,9.9c1.5,0,3.1-0.1,4.8-0.3l0,11.9c0,0.7,0.6,1.3,1.4,1.3
		s1.4-0.6,1.4-1.3l0-11.9c1.8,0.2,3.5,0.3,5.1,0.3c11.2,0,18.3-5.1,22.5-9.9c5.3-6,7.1-12.5,7.2-12.8c0.1-0.4,0-0.7-0.2-1
		C90.3,49.7,90,49.5,89.6,49.4z"/>
</g>
</svg>
