<?xml version="1.0" encoding="utf-8"?>
<!-- Generator: Adobe Illustrator 24.1.2, SVG Export Plug-In . SVG Version: 6.00 Build 0)  -->
<svg version="1.1" id="Layer_1" xmlns="http://www.w3.org/2000/svg" xmlns:xlink="http://www.w3.org/1999/xlink" x="0px" y="0px"
	 viewBox="0 0 95.1 95" style="enable-background:new 0 0 95.1 95;" xml:space="preserve">
<style type="text/css">
	.st0{fill:#FFFFFF;}
	.st1{fill-rule:evenodd;clip-rule:evenodd;fill:#FFFFFF;}
	.st2{fill-rule:evenodd;clip-rule:evenodd;fill:#B65927;}
</style>
<g>
	<path class="st0" d="M47.5,91.8c-24.5,0-44.4-9.9-44.4-22.2c0-8.8,10.8-16.9,27-20.4c0,0.4-0.1,0.9-0.1,1.3c0,0.6,0,1.3,0.1,1.9
		C17.4,55.4,9.5,61.3,9.5,68c0,4.2,3,8.1,8.7,11.3c0.5,0.3,1.1,0.3,1.6,0c0.5-0.3,0.8-0.8,0.8-1.4s-0.3-1.1-0.9-1.4
		C15.2,74,12.7,71,12.7,68c0-5,7.2-9.9,18.2-12.4c0.3,1,0.7,2,1.2,3c-7.3,1.9-11.5,5-11.5,8.6c0,6.7,13.9,10.4,26.9,10.4
		c3.8,0,7.6-0.3,11.4-0.9c0.6-0.1,1-0.5,1.2-1c0.2-0.5,0.1-1.1-0.3-1.6c-0.4-0.4-0.9-0.6-1.5-0.6c-3.6,0.6-7.2,0.9-10.8,0.9
		c-14.7,0-23.8-4.2-23.8-7.2c0-1.7,3.2-4.2,10.1-5.8c3.3,4.2,8.3,6.6,13.7,6.6c5.3,0,10.4-2.4,13.7-6.6c6.9,1.6,10.1,4.1,10.1,5.8
		c0,1.2-1.4,2.5-3.9,3.7c-0.8,0.4-1.1,1.3-0.7,2.1c0.4,0.8,1.3,1.1,2.1,0.8c4.7-2.2,5.7-4.8,5.7-6.6c0-3.6-4.2-6.7-11.5-8.6
		c0.5-1,0.9-2,1.2-3C75.2,58.1,82.4,63,82.4,68c0,7.7-16,14.3-34.9,14.3c-6.3,0-12.5-0.7-18.6-2.3c-0.8-0.2-1.7,0.3-1.9,1.1
		c-0.2,0.8,0.3,1.7,1.1,1.9c6.3,1.6,12.9,2.4,19.4,2.4c21.3,0,38-7.7,38-17.4c0-6.7-7.9-12.6-20.7-15.5c0.1-0.6,0.1-1.3,0.1-1.9
		c0-0.4,0-0.9-0.1-1.3c16.2,3.5,27,11.5,27,20.4C91.9,81.9,72,91.8,47.5,91.8z M45.6,27.5c0.8-0.9,1.4-1.6,2-2.2
		c0.5,0.6,1.2,1.4,2,2.2c4.6,5.2,12.3,13.8,12.3,23.1c0,7.9-6.4,14.3-14.3,14.3s-14.3-6.4-14.3-14.3C33.3,41.3,41,32.6,45.6,27.5z
		 M64.4,45.9C62.6,37.4,56,30,51.9,25.4c-0.7-0.8-1.4-1.5-1.9-2.2c-0.6-0.7-1.5-1.1-2.4-1.1c-0.9,0-1.8,0.4-2.4,1.1
		c-0.5,0.6-1.2,1.3-1.9,2.2c-4.2,4.7-10.7,12-12.6,20.6C12,49.7,0,58.9,0,69.6C0,83.8,20.9,95,47.5,95s47.5-11.1,47.5-25.3
		C95.1,58.9,83.1,49.7,64.4,45.9z"/>
	<path class="st0" d="M47.5,61.7c0.9,0,1.6-0.7,1.6-1.6c0-0.9-0.7-1.6-1.6-1.6c-4.4,0-7.9-3.5-7.9-7.9c0-0.9-0.7-1.6-1.6-1.6
		s-1.6,0.7-1.6,1.6C36.5,56.7,41.4,61.7,47.5,61.7z"/>
	<path class="st0" d="M87.3,19.8c-0.4,0.2-0.7,0.4-1.1,0.6c0,0-0.1,0-0.1,0c-2.2,1.1-4.8,1.2-7.1,0.3c2.1-2.3,3.2-5.5,3-8.6
		c0.1-0.1,0.3-0.2,0.4-0.3c2.8-2,6.5-2.1,9.5-0.3C92.1,14.9,90.3,18.2,87.3,19.8z M90.2,32.9c-3.2,1.3-6.8,0.5-9.3-1.8
		c-0.3-0.3-0.7-0.6-1-0.9c-1.7-1.8-2.7-4.2-2.5-6.7c1.5,0.7,3.1,1,4.8,1c1.5,0,3-0.3,4.3-0.9c0.1,0.1,0.3,0.2,0.4,0.3
		C89.7,26.1,90.9,29.6,90.2,32.9L90.2,32.9z M76.8,32.1c-1.1,3.2-4,5.5-7.5,5.8c-2.2-2.6-2.6-6.3-1.1-9.4c0.2-0.4,0.4-0.8,0.6-1.2
		c1.1-2.2,3.2-3.8,5.5-4.4c-0.3,3.2,0.6,6.3,2.7,8.7C76.9,31.7,76.8,31.9,76.8,32.1z M58.1,19.6c1.8-2.9,5.2-4.5,8.6-4
		c0.5,0,0.9,0.1,1.3,0.2c2.4,0.4,4.6,1.8,5.9,3.9c-3.1,0.7-5.8,2.5-7.5,5.2c-0.2,0-0.3,0-0.5,0C62.5,24.8,59.5,22.7,58.1,19.6z
		 M72.1,3.3c3.3,0.9,5.8,3.6,6.5,7c0.1,0.4,0.2,0.9,0.2,1.3c0.4,2.4-0.3,4.9-1.9,6.8c-1.6-2.7-4.2-4.7-7.3-5.5
		c0-0.2-0.1-0.3-0.1-0.5C68.5,9.1,69.5,5.5,72.1,3.3z M94.4,9.4c-3.8-2.8-8.9-3.1-13-0.6c-1.1-4.6-4.9-8.1-9.6-8.8
		c-0.3,0-0.7,0.1-1,0.2C67,3,65.2,7.8,66.2,12.4c-4.7-0.4-9.2,2.2-11.3,6.4c-0.1,0.3-0.2,0.7-0.1,1c1.4,4.5,5.4,7.7,10.1,8.1
		c-1.8,4.4-0.8,9.4,2.6,12.7c0.3,0.2,0.6,0.4,1,0.4h0.3c4.6-0.1,8.7-2.9,10.5-7.1c2.1,1.8,4.8,2.7,7.6,2.8c1.9,0,3.7-0.4,5.3-1.3
		c0.3-0.2,0.5-0.5,0.7-0.8c1.5-4.5,0.2-9.4-3.4-12.5c4-2.5,6.2-7.2,5.4-11.8C94.8,9.9,94.7,9.6,94.4,9.4z"/>
	<path class="st0" d="M26.3,30.1C26.3,30.1,26.3,30.1,26.3,30.1c-1.2-1.7-3-3-5-3.6c0.9-1.1,2.2-1.9,3.6-2.1
		c0.3-0.1,0.6-0.1,0.9-0.1c2.2-0.3,4.4,0.6,5.7,2.5C30.6,28.8,28.6,30.1,26.3,30.1L26.3,30.1z M23.8,39.5c-2.2-0.3-4.1-1.8-4.8-3.9
		c0,0,0-0.1,0-0.1c1.3-1.6,2-3.7,1.9-5.8c1.3,0.5,2.5,1.5,3.1,2.8c0.1,0.3,0.3,0.5,0.4,0.8C25.4,35.3,25.1,37.7,23.8,39.5L23.8,39.5
		z M9.3,36c-0.4-2.2,0.5-4.4,2.3-5.8c0,0,0.1,0,0.1-0.1c1,0.4,2,0.5,3.1,0.5c1,0,2-0.2,3-0.5C17.6,31.7,17,33,16,34
		c-0.2,0.2-0.4,0.4-0.7,0.6C13.8,36.2,11.4,36.7,9.3,36z M14.3,21.6C14.3,21.6,14.4,21.6,14.3,21.6c0,2.1,0.6,4.2,1.9,5.8
		c-1.4,0.4-2.9,0.2-4.1-0.4l-0.1,0c-0.3-0.1-0.5-0.2-0.7-0.4c-2-1-3.2-3.1-3.1-5.3C10.1,20.1,12.5,20.3,14.3,21.6z M17.8,20.1
		c0.4-2.2,2-4,4.1-4.6c1.6,1.5,2.2,3.8,1.6,6c0,0,0,0.1,0,0.1c-2,0.6-3.7,1.8-4.9,3.5c-0.8-1.2-1.1-2.7-0.9-4.1
		C17.7,20.7,17.7,20.4,17.8,20.1z M34.8,27c0.1-0.3,0.1-0.7-0.1-1c-1.5-3-4.6-4.9-8-4.9c0.6-3.3-0.8-6.7-3.6-8.7
		c-0.3-0.2-0.6-0.3-1-0.2c-3.4,0.5-6.1,2.9-7.1,6.1c-3-1.6-6.6-1.3-9.3,0.7c-0.3,0.2-0.5,0.5-0.5,0.9c-0.6,3.3,0.8,6.7,3.6,8.7
		c-2.4,2.4-3.3,5.9-2.2,9.1c0.1,0.3,0.4,0.6,0.7,0.8c1.3,0.7,2.7,1,4.1,1c1.9,0,3.7-0.6,5.3-1.8c1.5,3,4.5,4.8,7.8,4.9h0.2
		c0.4,0,0.7-0.2,1-0.4c2.4-2.4,3.3-5.9,2.2-9.1C31.1,32.6,33.8,30.3,34.8,27z"/>
</g>
</svg>
