<?xml version="1.0" encoding="utf-8"?>
<!-- Generator: Adobe Illustrator 24.1.2, SVG Export Plug-In . SVG Version: 6.00 Build 0)  -->
<svg version="1.1" id="Layer_1" xmlns="http://www.w3.org/2000/svg" xmlns:xlink="http://www.w3.org/1999/xlink" x="0px" y="0px"
	 viewBox="0 0 95.1 95" style="enable-background:new 0 0 95.1 95;" xml:space="preserve">
<style type="text/css">
	.st0{fill:#FFFFFF;}
	.st1{fill-rule:evenodd;clip-rule:evenodd;fill:#FFFFFF;}
	.st2{fill-rule:evenodd;clip-rule:evenodd;fill:#B65927;}
</style>
<g>
	<path class="st0" d="M11.5,95c-0.3,0-0.7-0.1-0.9-0.3c-0.6-0.5-0.6-1.4-0.1-2l12-13.7c0.5-0.6,1.4-0.6,2-0.1c0.6,0.5,0.6,1.4,0.1,2
		l-12,13.7C12.2,94.8,11.9,95,11.5,95z"/>
	<path class="st0" d="M57.3,38.6L24.2,76.4c-0.6,0.7-0.6,1.8,0.2,2.4c0.3,0.3,0.8,0.5,1.3,0.4c0.5,0,0.9-0.2,1.2-0.6l31.5-36
		c-0.7-1.1-1-2.2-0.9-3.3C57.3,39.1,57.3,38.9,57.3,38.6z M25.5,82.1c-1.1,0-2.1-0.4-3-1.1c-1.9-1.6-2.1-4.5-0.4-6.4L56.7,35
		c0.3-0.3,0.7-0.5,1.2-0.5c0.4,0,0.8,0.3,1.1,0.6c0.9,1.5,1.4,3,1.2,4.5c-0.1,0.6,0.3,1.3,1,2.1c0.5,0.5,0.5,1.3,0,1.9L28.9,80.5
		C28.1,81.4,27,82,25.8,82C25.7,82.1,25.6,82.1,25.5,82.1z"/>
	<path class="st0" d="M33.2,95c-0.3,0-0.6-0.1-0.9-0.3c-0.6-0.5-0.7-1.4-0.2-2l11.3-14.3c0.5-0.6,1.4-0.7,2-0.2
		c0.6,0.5,0.7,1.4,0.2,2L34.3,94.4C34,94.8,33.6,95,33.2,95z"/>
	<path class="st0" d="M46.4,81.4c-1,0-2-0.3-2.8-1c-2-1.6-2.3-4.4-0.7-6.4l37.4-47.2c1.6-2,4.4-2.3,6.4-0.7c2,1.6,2.3,4.4,0.7,6.4
		l-1.8,2.3c-0.5,0.6-1.4,0.7-2,0.2c-0.6-0.5-0.7-1.4-0.2-2l1.8-2.3c0.6-0.7,0.5-1.8-0.3-2.4c-0.7-0.6-1.8-0.5-2.4,0.3L45.1,75.8
		c-0.6,0.7-0.5,1.8,0.3,2.4c0.7,0.6,1.8,0.5,2.4-0.3l30.9-39c0.5-0.6,1.4-0.7,2-0.2c0.6,0.5,0.7,1.4,0.2,2L50,79.7
		C49.1,80.8,47.8,81.4,46.4,81.4z"/>
	<path class="st0" d="M55,95H8.2c-0.8,0-1.4-0.6-1.4-1.4c0-0.8,0.6-1.4,1.4-1.4H55c0.8,0,1.4,0.6,1.4,1.4C56.4,94.3,55.8,95,55,95z"
		/>
	<path class="st0" d="M77.6,71.1c1.2,0,2.4-0.2,3.4-0.8c3-1.7,4-5.6,2.3-8.6c-1.5-2.5-4.5-3.7-7.3-2.9c-0.1,1.7-0.6,3.4-1.6,4.8
		C76.4,65.5,77.6,68.2,77.6,71.1z M77.8,73.9c-0.7,0-1.4-0.1-2.1-0.2c-0.7-0.2-1.2-0.8-1.1-1.5c0-0.4,0.1-0.7,0.1-1
		c0-2.5-1.1-4.7-3.1-6.2c-0.3-0.2-0.5-0.6-0.5-1c0-0.4,0.1-0.8,0.4-1.1c1.1-1.2,1.7-2.7,1.7-4.3c0-0.2,0-0.4,0-0.6
		c-0.1-0.6,0.3-1.1,0.8-1.4c4.3-2,9.4-0.4,11.7,3.7c2.5,4.4,1,9.9-3.3,12.5C81,73.5,79.4,73.9,77.8,73.9z"/>
	<path class="st0" d="M72.2,80.3c0.5,1.1,1.4,1.9,2.4,2.5c1.5,0.8,3.2,1.1,4.8,0.6c1.6-0.4,3-1.5,3.8-2.9c1.5-2.5,0.9-5.8-1.1-7.7
		c-1.5,0.8-3.2,1.2-5,1.1C76.5,76.6,74.7,78.9,72.2,80.3z M77.8,86.5c-1.6,0-3.1-0.4-4.5-1.2c-2-1.2-3.5-3-4.2-5.2
		c-0.2-0.7,0.1-1.4,0.8-1.7c2.6-1.1,4.4-3.5,4.8-6.3c0.1-0.4,0.3-0.7,0.6-1c0.3-0.2,0.7-0.3,1.1-0.2c1.6,0.4,3.2,0.1,4.6-0.7
		c0.2-0.1,0.3-0.2,0.5-0.3c0.5-0.3,1.1-0.3,1.6,0c3.9,2.7,5,7.9,2.7,12c-1.2,2.1-3.2,3.6-5.5,4.2C79.4,86.4,78.6,86.5,77.8,86.5z"/>
	<path class="st0" d="M61.6,80.3c-0.6,1-1,2.2-1,3.4c0,3.5,2.8,6.3,6.3,6.3c2.9,0,5.5-2.1,6.1-4.9c-1.5-0.9-2.6-2.2-3.4-3.8
		C67,82.1,64,81.7,61.6,80.3z M66.9,92.8c-5,0-9.1-4.1-9.1-9.1c0-2.3,0.9-4.5,2.5-6.2c0.5-0.5,1.3-0.6,1.9-0.2
		c2.2,1.7,5.2,2.1,7.8,1c0.4-0.2,0.8-0.1,1.1,0c0.4,0.2,0.6,0.5,0.7,0.9c0.5,1.5,1.5,2.8,2.9,3.6c0.2,0.1,0.3,0.2,0.5,0.3
		c0.5,0.2,0.9,0.8,0.8,1.4C75.6,89.2,71.7,92.8,66.9,92.8z"/>
	<path class="st0" d="M72.5,65.1c-0.3,0-0.6-0.1-0.9-0.3c-2.2-1.7-5.2-2.1-7.8-1c-0.7,0.3-1.5,0-1.8-0.8c-0.3-0.7,0-1.5,0.8-1.8
		c3-1.3,6.6-1,9.4,0.6c0.6-1,1-2.2,1-3.4c0-1.1-0.3-2.1-0.8-3c-0.4-0.7-0.1-1.5,0.6-1.9c0.7-0.4,1.5-0.1,1.9,0.6
		c0.7,1.3,1.1,2.8,1.1,4.4c0,2.3-0.9,4.5-2.5,6.2C73.3,65,72.9,65.1,72.5,65.1z"/>
	<path class="st0" d="M57.7,71.3c-0.1,0-0.1,0-0.2,0c-0.8-0.1-1.3-0.8-1.2-1.6c0.5-3.8,3-7,6.5-8.5c0.7-0.3,1.5,0,1.8,0.8
		c0.3,0.7,0,1.5-0.8,1.8c-2.6,1.1-4.4,3.5-4.8,6.3C59,70.8,58.4,71.3,57.7,71.3z"/>
	<path class="st0" d="M55.9,86.5c-2.2,0-4.4-0.8-6.2-2.4c-0.6-0.5-0.6-1.4-0.1-2c0.5-0.6,1.4-0.6,2-0.1c1.7,1.5,4,2,6.1,1.4
		c0.1-1.7,0.6-3.4,1.6-4.8c-2-2-3.1-4.7-3.1-7.5c0-0.4,0-0.9,0.1-1.4c0.1-0.8,0.8-1.3,1.6-1.2c0.8,0.1,1.3,0.8,1.2,1.6
		c-0.1,0.4-0.1,0.7-0.1,1c0,2.5,1.1,4.7,3.1,6.2c0.3,0.2,0.5,0.6,0.5,1c0,0.4-0.1,0.8-0.4,1.1c-1.1,1.2-1.7,2.7-1.7,4.3
		c0,0.2,0,0.4,0,0.6c0.1,0.6-0.3,1.1-0.8,1.4C58.6,86.2,57.3,86.5,55.9,86.5z"/>
	<path class="st0" d="M66.9,76c-2.7,0-5-2.2-5-5c0-0.8,0.6-1.4,1.4-1.4c0.8,0,1.4,0.6,1.4,1.4c0,1.2,1,2.2,2.2,2.2
		c1.2,0,2.2-1,2.2-2.2c0-1.2-1-2.2-2.2-2.2c-0.8,0-1.4-0.6-1.4-1.4c0-0.8,0.6-1.4,1.4-1.4c2.7,0,5,2.2,5,5
		C71.9,73.8,69.6,76,66.9,76z"/>
	<path class="st0" d="M57.7,31.1c-0.3,0-0.6-0.1-0.9-0.3c-0.1,0-5.5-4.8-0.3-12.6c5.2-7.8,0.4-13.6-1.8-15.7c-0.6-0.5-0.6-1.4-0.1-2
		c0.5-0.6,1.4-0.6,2-0.1c5.8,5.5,6.7,12.7,2.3,19.3c-3.9,5.8-0.4,8.8-0.3,8.9c0.6,0.5,0.7,1.4,0.2,2C58.5,30.9,58.1,31.1,57.7,31.1z
		"/>
	<path class="st0" d="M65.1,31.7c-0.4,0-0.8-0.2-1.1-0.5c-0.1-0.2-3.2-4.1-0.1-9.5c2.3-4,2.6-8,0.8-12c-0.3-0.7,0-1.5,0.7-1.9
		c0.7-0.3,1.5,0,1.9,0.7c2.1,4.8,1.8,9.8-1,14.5c-2.1,3.7-0.1,6.3-0.1,6.3c0.5,0.6,0.4,1.5-0.2,2C65.7,31.6,65.4,31.7,65.1,31.7z"/>
	<path class="st0" d="M47.6,36.8c-0.3,0-0.6-0.1-0.9-0.3c-0.9-0.7-1.9-2.8,1.1-8.9c2.6-5.3,0.8-11-0.6-12.3c-0.6-0.5-0.6-1.4-0.1-2
		c0.5-0.6,1.4-0.6,2-0.1c2.2,2,4.5,9,1.2,15.6c-2,4-1.7,5.4-1.7,5.6c0.4,0.5,0.4,1.2,0,1.8C48.5,36.6,48.1,36.8,47.6,36.8z"/>
</g>
</svg>
